<svg xmlns="http://www.w3.org/2000/svg" xmlns:xlink="http://www.w3.org/1999/xlink" width="350" height="49" viewBox="0 0 350 49">
    <defs>
        <path id="a" d="M33.671 2.777H46.34V47.72H33.671V28.917H12.752v18.804H0V2.777h12.752v17.27h20.92V2.778zm66.26 27.74c-.25-5.402-.5-11.937-.5-18.471h-.25c-1.75 5.735-4.083 12.137-6.25 17.404l-6.835 17.537H76.18l-6.002-17.404c-1.834-5.267-3.75-11.67-5.084-17.537h-.166c-.334 6.068-.584 13.003-1 18.605l-1.001 17.07H51.174l3.584-44.944h16.92l5.5 15.004c1.75 5.2 3.501 10.802 4.75 16.07h.25c1.585-5.201 3.501-11.136 5.335-16.137l6-14.937H110.1l3.083 44.944h-12.418l-.833-17.205zm51.425-1.8h-20.67v10.668h23.086v8.336h-35.838V2.777h34.671v8.335h-21.92v9.336h20.67v8.268zm46.353 17.389c-2.288 1.144-6.663 2.288-12.25 2.288-10.971 0-21.473-7-21.473-23.088 0-13.46 8.684-23.625 23.02-23.625 5.79 0 9.154 1.28 10.5 1.952l-1.01 2.693c-2.287-1.144-5.586-1.952-9.422-1.952-12.25 0-19.721 7.942-19.721 21 0 12.318 7 20.26 19.182 20.26 3.837 0 7.605-.808 10.232-2.087l.942 2.559zm4.916-43.751h3.231v42.674h20.193v2.692h-23.424V2.355zm41.735 46.107c-11.174 0-19.857-8.818-19.857-22.953 0-14.875 9.018-23.895 20.395-23.895 11.442 0 19.788 8.952 19.788 22.953 0 16.019-9.827 23.895-20.26 23.895h-.066zm27.465-46.107V29.75c0 11.576 5.385 16.02 12.047 16.02 7.54 0 12.723-4.848 12.723-16.02V2.355h3.23V29.48c0 13.933-7.538 18.981-16.086 18.981-7.943 0-15.145-4.577-15.145-18.51V2.355h3.23zM304 3.027a67.57 67.57 0 0 1 11.644-1.01c8.28 0 14.54 2.222 18.309 6.193 3.635 3.77 5.654 8.886 5.654 15.75 0 6.664-1.817 12.655-5.923 17.165-3.972 4.375-10.837 6.932-19.587 6.932-3.5 0-6.799-.067-10.097-.335V3.027zM344.68 1C347.67 1 350 3.327 350 6.287c0 3.026-2.329 5.353-5.353 5.353-3.027 0-5.42-2.327-5.42-5.353 0-2.96 2.393-5.287 5.42-5.287h.033zM307.232 45.03c1.817.27 4.443.336 7.337.336 14.539 0 21.74-8.145 21.74-21.27.136-11.51-6.26-19.384-20.865-19.384-3.5 0-6.26.336-8.212.74v39.578zm-62.671.74c10.769 0 16.76-9.76 16.76-21 0-9.559-5.25-20.463-16.625-20.463-11.51 0-16.828 10.5-16.828 21.068 0 10.23 5.923 20.395 16.626 20.395h.067zM344.614 1.931c-2.395 0-4.223 1.962-4.223 4.356 0 2.46 1.828 4.39 4.289 4.39 2.361.032 4.157-1.93 4.157-4.357 0-2.427-1.796-4.39-4.19-4.39h-.033zm-.932 7.282h-1.03V3.66c.565-.1 1.163-.166 1.928-.166.931 0 1.396.166 1.729.433.332.232.566.664.566 1.196 0 .665-.5 1.097-1.065 1.297v.066c.466.2.731.632.899 1.364.166.83.298 1.163.431 1.363h-1.064c-.166-.2-.3-.699-.465-1.43-.133-.631-.498-.898-1.264-.898h-.665v2.328zm0-3.125h.698c.733 0 1.43-.233 1.43-.865 0-.532-.365-.93-1.33-.93-.4 0-.632.032-.798.065v1.73z"/>
    </defs>
    <g fill="none" fill-rule="evenodd">
        <mask id="b" fill="#fff">
            <use xlink:href="#a"/>
        </mask>
        <use fill="#E8E9ED" xlink:href="#a"/>
        <g fill="#002469" mask="url(#b)">
            <path d="M0 0h350v49H0z"/>
        </g>
    </g>
</svg>
